<?xml version="1.0" encoding="utf-8"?>

<!-- Generator: Adobe Illustrator 19.0.0, SVG Export Plug-In . SVG Version: 6.00 Build 0)  -->

<svg version="1.1" id="Layer_3" xmlns="http://www.w3.org/2000/svg" xmlns:xlink="http://www.w3.org/1999/xlink" x="0px" y="0px"

	 viewBox="-283 406.9 28 28" style="enable-background:new -283 406.9 28 28;" xml:space="preserve">

<style type="text/css">

	.st0{display:none;}

	.st1{fill:none;stroke:#65727C;stroke-miterlimit:10;}

	.st2{fill:#FFFFFF;stroke:#65727C;stroke-miterlimit:10;}

	.st3{fill:#65727C;}

</style>

<g>

	<g id="qDXrHp_1_" class="st0">

		

			<image style="display:inline;overflow:visible;enable-background:new    ;" width="200" height="200" id="qDXrHp" xlink:href="7B4BC4DCA9615197.jpeg"  transform="matrix(0.14 0 0 0.14 -283 406.89)">

		</image>

	</g>

	<path class="st1" d="M-258.5,434.4h-21c-1.7,0-3-1.3-3-3v-21c0-1.7,1.3-3,3-3h21.1c1.7,0,3,1.3,3,3v21.1

		C-255.5,433.1-256.8,434.4-258.5,434.4z"/>

	<g>

		<g>

			<path class="st2" d="M-260.9,427h-15.5c-0.4,0-0.7-0.3-0.7-0.7v-12c0-0.4,0.3-0.7,0.7-0.7h15.5c0.4,0,0.7,0.3,0.7,0.7v12

				C-260.2,426.7-260.5,427-260.9,427z"/>

			<polygon class="st3" points="-275.6,425.2 -270.7,417.1 -266.8,423.2 -264.9,420.1 -261.8,425.2 			"/>

			<circle class="st3" cx="-266.1" cy="417.5" r="1.4"/>

		</g>

	</g>

</g>

</svg>
